<svg width="64" height="64" viewBox="0 0 64 64" fill="none" xmlns="http://www.w3.org/2000/svg">
<path d="M56.9824 58.0042C47.1893 65.9986 16.6107 65.9986 7.01745 58.0042C-2.77569 50.0098 -1.77641 15.8338 7.01745 6.84011C15.8113 -2.15357 48.1885 -2.15357 56.9824 6.84011C65.7762 15.8338 66.7755 50.0099 56.9824 58.0042Z" fill="#0D4372"/>
<path d="M32.1999 44.0141C23.4061 51.0092 13.6129 54.6067 4.41943 54.8065C-2.37586 43.2146 -0.976781 15.0345 7.01762 6.84025C14.2126 -0.554517 36.7967 -1.9536 49.7876 2.64316C52.9853 15.8339 46.39 32.622 32.1999 44.0141Z" fill="#0F4C81"/>
<path d="M42.1929 28.0253L33.9986 44.8135H30.0015L21.8073 28.0253V47.2117H14.8122V16.6332H24.0057L31.8002 33.4215L39.7946 16.6332H48.9881V47.2117H42.1929V28.0253Z" fill="white"/>
</svg>
